<?xml version="1.0" encoding="UTF-8" standalone="no"?>
<!DOCTYPE svg PUBLIC "-//W3C//DTD SVG 1.1//EN" "http://www.w3.org/Graphics/SVG/1.1/DTD/svg11.dtd">
<svg width="100%" height="100%" viewBox="0 0 1200 640" version="1.1" xmlns="http://www.w3.org/2000/svg" xmlns:xlink="http://www.w3.org/1999/xlink" xml:space="preserve" xmlns:serif="http://www.serif.com/" style="fill-rule:evenodd;clip-rule:evenodd;stroke-linejoin:round;stroke-miterlimit:2;">
    <rect x="72.468" y="105.086" width="16.91" height="45.223" style="fill:#003dff;"/>
    <rect x="682.183" y="105.086" width="16.91" height="45.223" style="fill:#003dff;"/>
    <rect x="449.134" y="105.086" width="16.91" height="45.223" style="fill:#003dff;"/>
    <rect x="72.468" y="214.973" width="16.91" height="45.223" style="fill:#003dff;"/>
    <rect x="682.183" y="214.973" width="16.91" height="45.223" style="fill:#003dff;"/>
    <rect x="962.919" y="214.973" width="16.91" height="45.223" style="fill:#003dff;"/>
    <rect x="962.919" y="324.86" width="16.91" height="45.223" style="fill:#003dff;"/>
    <rect x="1000.85" y="379.804" width="16.91" height="45.223" style="fill:#003dff;"/>
    <rect x="1000.85" y="489.691" width="16.91" height="45.223" style="fill:#003dff;"/>
    <rect x="925.993" y="489.691" width="16.91" height="45.223" style="fill:#003dff;"/>
    <rect x="925.993" y="269.917" width="16.91" height="45.223" style="fill:#003dff;"/>
    <rect x="449.134" y="214.973" width="16.91" height="45.223" style="fill:#003dff;"/>
    <rect x="72.468" y="324.86" width="16.91" height="45.223" style="fill:#003dff;"/>
    <rect x="682.183" y="324.86" width="16.91" height="45.223" style="fill:#003dff;"/>
    <rect x="449.134" y="324.86" width="16.91" height="45.223" style="fill:#003dff;"/>
    <rect x="72.468" y="434.747" width="16.91" height="45.223" style="fill:#003dff;"/>
    <rect x="682.183" y="434.747" width="16.91" height="45.223" style="fill:#003dff;"/>
    <rect x="449.134" y="434.747" width="16.91" height="45.223" style="fill:#003dff;"/>
    <rect x="109.394" y="160.03" width="16.91" height="45.223" style="fill:#003dff;"/>
    <rect x="719.108" y="160.03" width="16.91" height="45.223" style="fill:#003dff;"/>
    <rect x="220.171" y="214.973" width="16.91" height="45.223" style="fill:#003dff;"/>
    <rect x="257.097" y="269.917" width="16.91" height="45.223" style="fill:#003dff;"/>
    <rect x="257.097" y="379.804" width="16.91" height="45.223" style="fill:#003dff;"/>
    <rect x="257.097" y="489.691" width="16.91" height="45.223" style="fill:#003dff;"/>
    <rect x="183.246" y="489.691" width="16.91" height="45.223" style="fill:#003dff;"/>
    <rect x="294.023" y="214.973" width="16.91" height="45.223" style="fill:#003dff;"/>
    <rect x="294.023" y="324.86" width="16.91" height="45.223" style="fill:#003dff;"/>
    <rect x="294.023" y="434.747" width="16.91" height="45.223" style="fill:#003dff;"/>
    <rect x="330.949" y="269.917" width="16.91" height="45.223" style="fill:#003dff;"/>
    <rect x="330.949" y="379.804" width="16.91" height="45.223" style="fill:#003dff;"/>
    <rect x="109.394" y="269.917" width="16.91" height="45.223" style="fill:#003dff;"/>
    <rect x="719.108" y="269.917" width="16.91" height="45.223" style="fill:#003dff;"/>
    <rect x="486.059" y="269.917" width="16.91" height="45.223" style="fill:#003dff;"/>
    <rect x="109.394" y="379.804" width="16.91" height="45.223" style="fill:#003dff;"/>
    <rect x="719.108" y="379.804" width="16.91" height="45.223" style="fill:#003dff;"/>
    <rect x="486.059" y="379.804" width="16.91" height="45.223" style="fill:#003dff;"/>
    <rect x="109.394" y="489.691" width="16.91" height="45.223" style="fill:#003dff;"/>
    <rect x="719.108" y="489.691" width="16.91" height="45.223" style="fill:#003dff;"/>
    <rect x="486.059" y="489.691" width="16.91" height="45.223" style="fill:#003dff;"/>
    <rect x="146.32" y="105.086" width="16.91" height="45.223" style="fill:#003dff;"/>
    <rect x="756.034" y="105.086" width="16.91" height="45.223" style="fill:#003dff;"/>
    <rect x="522.985" y="105.086" width="16.91" height="45.223" style="fill:#003dff;"/>
    <rect x="146.32" y="214.973" width="16.91" height="45.223" style="fill:#003dff;"/>
    <rect x="756.034" y="214.973" width="16.91" height="45.223" style="fill:#003dff;"/>
    <rect x="1036.77" y="214.973" width="16.91" height="45.223" style="fill:#003dff;"/>
    <rect x="1036.77" y="434.747" width="16.91" height="45.223" style="fill:#003dff;"/>
    <rect x="963.922" y="434.747" width="16.91" height="45.223" style="fill:#003dff;"/>
    <rect x="1036.77" y="324.86" width="16.91" height="45.223" style="fill:#003dff;"/>
    <rect x="1074.7" y="379.804" width="16.91" height="45.223" style="fill:#003dff;"/>
    <rect x="1074.7" y="489.691" width="16.91" height="45.223" style="fill:#003dff;"/>
    <rect x="999.845" y="269.917" width="16.91" height="45.223" style="fill:#003dff;"/>
    <rect x="1110.62" y="214.973" width="16.91" height="45.223" style="fill:#003dff;"/>
    <rect x="1110.62" y="434.747" width="16.91" height="45.223" style="fill:#003dff;"/>
    <rect x="522.985" y="214.973" width="16.91" height="45.223" style="fill:#003dff;"/>
    <rect x="146.32" y="324.86" width="16.91" height="45.223" style="fill:#003dff;"/>
    <rect x="756.034" y="324.86" width="16.91" height="45.223" style="fill:#003dff;"/>
    <rect x="522.985" y="324.86" width="16.91" height="45.223" style="fill:#003dff;"/>
    <rect x="146.32" y="434.747" width="16.91" height="45.223" style="fill:#003dff;"/>
    <rect x="756.034" y="434.747" width="16.91" height="45.223" style="fill:#003dff;"/>
    <rect x="522.985" y="434.747" width="16.91" height="45.223" style="fill:#003dff;"/>
    <path d="M136.312,114.318C136.312,109.223 132.175,105.086 127.08,105.086L108.617,105.086C103.522,105.086 99.386,109.223 99.386,114.318L99.386,141.078C99.386,146.173 103.522,150.309 108.617,150.309L127.08,150.309C132.175,150.309 136.312,146.173 136.312,141.078L136.312,114.318ZM125.301,118.289L110.396,118.289L110.396,137.106L125.301,137.106L125.301,118.289Z" style="fill:#078dff;"/>
    <path d="M746.026,114.318C746.026,109.223 741.89,105.086 736.795,105.086L718.332,105.086C713.237,105.086 709.1,109.223 709.1,114.318L709.1,141.078C709.1,146.173 713.237,150.309 718.332,150.309L736.795,150.309C741.89,150.309 746.026,146.173 746.026,141.078L746.026,114.318ZM735.015,118.289L720.111,118.289L720.111,137.106L735.015,137.106L735.015,118.289Z" style="fill:#078dff;"/>
    <path d="M512.977,114.318C512.977,109.223 508.841,105.086 503.746,105.086L485.283,105.086C480.188,105.086 476.051,109.223 476.051,114.318L476.051,141.078C476.051,146.173 480.188,150.309 485.283,150.309L503.746,150.309C508.841,150.309 512.977,146.173 512.977,141.078L512.977,114.318ZM501.966,118.289L487.062,118.289L487.062,137.106L501.966,137.106L501.966,118.289Z" style="fill:#078dff;"/>
    <path d="M136.312,224.205C136.312,219.11 132.175,214.973 127.08,214.973L108.617,214.973C103.522,214.973 99.386,219.11 99.386,224.205L99.386,250.965C99.386,256.06 103.522,260.196 108.617,260.196L127.08,260.196C132.175,260.196 136.312,256.06 136.312,250.965L136.312,224.205ZM125.301,228.176L110.396,228.176L110.396,246.994L125.301,246.994L125.301,228.176Z" style="fill:#078dff;"/>
    <path d="M746.026,224.205C746.026,219.11 741.89,214.973 736.795,214.973L718.332,214.973C713.237,214.973 709.1,219.11 709.1,224.205L709.1,250.965C709.1,256.06 713.237,260.196 718.332,260.196L736.795,260.196C741.89,260.196 746.026,256.06 746.026,250.965L746.026,224.205ZM735.015,228.176L720.111,228.176L720.111,246.994L735.015,246.994L735.015,228.176Z" style="fill:#078dff;"/>
    <path d="M1026.76,224.205C1026.76,219.11 1022.63,214.973 1017.53,214.973L999.068,214.973C993.973,214.973 989.837,219.11 989.837,224.205L989.837,250.965C989.837,256.06 993.973,260.196 999.068,260.196L1017.53,260.196C1022.63,260.196 1026.76,256.06 1026.76,250.965L1026.76,224.205ZM1015.75,228.176L1000.85,228.176L1000.85,246.994L1015.75,246.994L1015.75,228.176Z" style="fill:#078dff;"/>
    <path d="M1026.76,334.092C1026.76,328.997 1022.63,324.86 1017.53,324.86L999.068,324.86C993.973,324.86 989.837,328.997 989.837,334.092L989.837,360.852C989.837,365.947 993.973,370.083 999.068,370.083L1017.53,370.083C1022.63,370.083 1026.76,365.947 1026.76,360.852L1026.76,334.092ZM1015.75,338.063L1000.85,338.063L1000.85,356.881L1015.75,356.881L1015.75,338.063Z" style="fill:#078dff;"/>
    <path d="M953.913,334.092C953.913,328.997 949.777,324.86 944.682,324.86L926.219,324.86C921.124,324.86 916.988,328.997 916.988,334.092L916.988,360.852C916.988,365.947 921.124,370.083 926.219,370.083L944.682,370.083C949.777,370.083 953.913,365.947 953.913,360.852L953.913,334.092ZM942.903,338.063L927.998,338.063L927.998,356.881L942.903,356.881L942.903,338.063Z" style="fill:#078dff;"/>
    <path d="M1064.69,389.035C1064.69,383.94 1060.56,379.804 1055.46,379.804L1037,379.804C1031.9,379.804 1027.77,383.94 1027.77,389.035L1027.77,415.795C1027.77,420.89 1031.9,425.027 1037,425.027L1055.46,425.027C1060.56,425.027 1064.69,420.89 1064.69,415.795L1064.69,389.035ZM1053.68,393.006L1038.78,393.006L1038.78,411.824L1053.68,411.824L1053.68,393.006Z" style="fill:#078dff;"/>
    <path d="M1064.69,498.922C1064.69,493.827 1060.56,489.691 1055.46,489.691L1037,489.691C1031.9,489.691 1027.77,493.827 1027.77,498.922L1027.77,525.682C1027.77,530.777 1031.9,534.914 1037,534.914L1055.46,534.914C1060.56,534.914 1064.69,530.777 1064.69,525.682L1064.69,498.922ZM1053.68,502.894L1038.78,502.894L1038.78,521.711L1053.68,521.711L1053.68,502.894Z" style="fill:#078dff;"/>
    <path d="M990.839,498.922C990.839,493.827 986.703,489.691 981.608,489.691L963.145,489.691C958.05,489.691 953.913,493.827 953.913,498.922L953.913,525.682C953.913,530.777 958.05,534.914 963.145,534.914L981.608,534.914C986.703,534.914 990.839,530.777 990.839,525.682L990.839,498.922ZM979.829,502.894L964.924,502.894L964.924,521.711L979.829,521.711L979.829,502.894Z" style="fill:#078dff;"/>
    <path d="M1137.54,389.035C1137.54,383.94 1133.4,379.804 1128.31,379.804L1109.85,379.804C1104.75,379.804 1100.61,383.94 1100.61,389.035L1100.61,415.795C1100.61,420.89 1104.75,425.027 1109.85,425.027L1128.31,425.027C1133.4,425.027 1137.54,420.89 1137.54,415.795L1137.54,389.035ZM1126.53,393.006L1111.62,393.006L1111.62,411.824L1126.53,411.824L1126.53,393.006Z" style="fill:#078dff;"/>
    <path d="M1137.54,498.922C1137.54,493.827 1133.4,489.691 1128.31,489.691L1109.85,489.691C1104.75,489.691 1100.61,493.827 1100.61,498.922L1100.61,525.682C1100.61,530.777 1104.75,534.914 1109.85,534.914L1128.31,534.914C1133.4,534.914 1137.54,530.777 1137.54,525.682L1137.54,498.922ZM1126.53,502.894L1111.62,502.894L1111.62,521.711L1126.53,521.711L1126.53,502.894Z" style="fill:#078dff;"/>
    <path d="M989.837,279.148C989.837,274.053 985.7,269.917 980.605,269.917L962.142,269.917C957.047,269.917 952.911,274.053 952.911,279.148L952.911,305.908C952.911,311.003 957.047,315.14 962.142,315.14L980.605,315.14C985.7,315.14 989.837,311.003 989.837,305.908L989.837,279.148ZM978.826,283.119L963.922,283.119L963.922,301.937L978.826,301.937L978.826,283.119Z" style="fill:#078dff;"/>
    <path d="M1137.54,279.148C1137.54,274.053 1133.4,269.917 1128.31,269.917L1109.85,269.917C1104.75,269.917 1100.61,274.053 1100.61,279.148L1100.61,305.908C1100.61,311.003 1104.75,315.14 1109.85,315.14L1128.31,315.14C1133.4,315.14 1137.54,311.003 1137.54,305.908L1137.54,279.148ZM1126.53,283.119L1111.62,283.119L1111.62,301.937L1126.53,301.937L1126.53,283.119Z" style="fill:#078dff;"/>
    <path d="M512.977,224.205C512.977,219.11 508.841,214.973 503.746,214.973L485.283,214.973C480.188,214.973 476.051,219.11 476.051,224.205L476.051,250.965C476.051,256.06 480.188,260.196 485.283,260.196L503.746,260.196C508.841,260.196 512.977,256.06 512.977,250.965L512.977,224.205ZM501.966,228.176L487.062,228.176L487.062,246.994L501.966,246.994L501.966,228.176Z" style="fill:#078dff;"/>
    <path d="M136.312,334.092C136.312,328.997 132.175,324.86 127.08,324.86L108.617,324.86C103.522,324.86 99.386,328.997 99.386,334.092L99.386,360.852C99.386,365.947 103.522,370.083 108.617,370.083L127.08,370.083C132.175,370.083 136.312,365.947 136.312,360.852L136.312,334.092ZM125.301,338.063L110.396,338.063L110.396,356.881L125.301,356.881L125.301,338.063Z" style="fill:#078dff;"/>
    <path d="M746.026,334.092C746.026,328.997 741.89,324.86 736.795,324.86L718.332,324.86C713.237,324.86 709.1,328.997 709.1,334.092L709.1,360.852C709.1,365.947 713.237,370.083 718.332,370.083L736.795,370.083C741.89,370.083 746.026,365.947 746.026,360.852L746.026,334.092ZM735.015,338.063L720.111,338.063L720.111,356.881L735.015,356.881L735.015,338.063Z" style="fill:#078dff;"/>
    <path d="M512.977,334.092C512.977,328.997 508.841,324.86 503.746,324.86L485.283,324.86C480.188,324.86 476.051,328.997 476.051,334.092L476.051,360.852C476.051,365.947 480.188,370.083 485.283,370.083L503.746,370.083C508.841,370.083 512.977,365.947 512.977,360.852L512.977,334.092ZM501.966,338.063L487.062,338.063L487.062,356.881L501.966,356.881L501.966,338.063Z" style="fill:#078dff;"/>
    <path d="M136.312,443.979C136.312,438.884 132.175,434.747 127.08,434.747L108.617,434.747C103.522,434.747 99.386,438.884 99.386,443.979L99.386,470.739C99.386,475.834 103.522,479.97 108.617,479.97L127.08,479.97C132.175,479.97 136.312,475.834 136.312,470.739L136.312,443.979ZM125.301,447.95L110.396,447.95L110.396,466.768L125.301,466.768L125.301,447.95Z" style="fill:#078dff;"/>
    <path d="M746.026,443.979C746.026,438.884 741.89,434.747 736.795,434.747L718.332,434.747C713.237,434.747 709.1,438.884 709.1,443.979L709.1,470.739C709.1,475.834 713.237,479.97 718.332,479.97L736.795,479.97C741.89,479.97 746.026,475.834 746.026,470.739L746.026,443.979ZM735.015,447.95L720.111,447.95L720.111,466.768L735.015,466.768L735.015,447.95Z" style="fill:#078dff;"/>
    <path d="M512.977,443.979C512.977,438.884 508.841,434.747 503.746,434.747L485.283,434.747C480.188,434.747 476.051,438.884 476.051,443.979L476.051,470.739C476.051,475.834 480.188,479.97 485.283,479.97L503.746,479.97C508.841,479.97 512.977,475.834 512.977,470.739L512.977,443.979ZM501.966,447.95L487.062,447.95L487.062,466.768L501.966,466.768L501.966,447.95Z" style="fill:#078dff;"/>
    <path d="M99.386,169.261C99.386,164.166 95.249,160.03 90.154,160.03L71.691,160.03C66.596,160.03 62.46,164.166 62.46,169.261L62.46,196.021C62.46,201.116 66.596,205.253 71.691,205.253L90.154,205.253C95.249,205.253 99.386,201.116 99.386,196.021L99.386,169.261ZM88.375,173.232L73.471,173.232L73.471,192.05L88.375,192.05L88.375,173.232Z" style="fill:#078dff;"/>
    <path d="M709.1,169.261C709.1,164.166 704.964,160.03 699.869,160.03L681.406,160.03C676.311,160.03 672.174,164.166 672.174,169.261L672.174,196.021C672.174,201.116 676.311,205.253 681.406,205.253L699.869,205.253C704.964,205.253 709.1,201.116 709.1,196.021L709.1,169.261ZM698.09,173.232L683.185,173.232L683.185,192.05L698.09,192.05L698.09,173.232Z" style="fill:#078dff;"/>
    <path d="M210.163,224.205C210.163,219.11 206.027,214.973 200.932,214.973L182.469,214.973C177.374,214.973 173.237,219.11 173.237,224.205L173.237,250.965C173.237,256.06 177.374,260.196 182.469,260.196L200.932,260.196C206.027,260.196 210.163,256.06 210.163,250.965L210.163,224.205ZM199.153,228.176L184.248,228.176L184.248,246.994L199.153,246.994L199.153,228.176Z" style="fill:#078dff;"/>
    <path d="M819.878,224.205C819.878,219.11 815.742,214.973 810.647,214.973L792.184,214.973C787.089,214.973 782.952,219.11 782.952,224.205L782.952,250.965C782.952,256.06 787.089,260.196 792.184,260.196L810.647,260.196C815.742,260.196 819.878,256.06 819.878,250.965L819.878,224.205ZM808.867,228.176L793.963,228.176L793.963,246.994L808.867,246.994L808.867,228.176Z" style="fill:#078dff;"/>
    <path d="M1100.61,224.205C1100.61,219.11 1096.48,214.973 1091.38,214.973L1072.92,214.973C1067.83,214.973 1063.69,219.11 1063.69,224.205L1063.69,250.965C1063.69,256.06 1067.83,260.196 1072.92,260.196L1091.38,260.196C1096.48,260.196 1100.61,256.06 1100.61,250.965L1100.61,224.205ZM1089.6,228.176L1074.7,228.176L1074.7,246.994L1089.6,246.994L1089.6,228.176Z" style="fill:#078dff;"/>
    <path d="M1100.61,443.979C1100.61,438.884 1096.48,434.747 1091.38,434.747L1072.92,434.747C1067.83,434.747 1063.69,438.884 1063.69,443.979L1063.69,470.739C1063.69,475.834 1067.83,479.97 1072.92,479.97L1091.38,479.97C1096.48,479.97 1100.61,475.834 1100.61,470.739L1100.61,443.979ZM1089.6,447.95L1074.7,447.95L1074.7,466.768L1089.6,466.768L1089.6,447.95Z" style="fill:#078dff;"/>
    <path d="M953.913,443.979C953.913,438.884 949.777,434.747 944.682,434.747L926.219,434.747C921.124,434.747 916.988,438.884 916.988,443.979L916.988,470.739C916.988,475.834 921.124,479.97 926.219,479.97L944.682,479.97C949.777,479.97 953.913,475.834 953.913,470.739L953.913,443.979ZM942.903,447.95L927.998,447.95L927.998,466.768L942.903,466.768L942.903,447.95Z" style="fill:#078dff;"/>
    <path d="M672.174,224.205C672.174,219.11 668.038,214.973 662.943,214.973L644.48,214.973C639.385,214.973 635.249,219.11 635.249,224.205L635.249,250.965C635.249,256.06 639.385,260.196 644.48,260.196L662.943,260.196C668.038,260.196 672.174,256.06 672.174,250.965L672.174,224.205ZM661.164,228.176L646.259,228.176L646.259,246.994L661.164,246.994L661.164,228.176Z" style="fill:#078dff;"/>
    <path d="M952.911,224.205C952.911,219.11 948.774,214.973 943.679,214.973L925.216,214.973C920.121,214.973 915.985,219.11 915.985,224.205L915.985,250.965C915.985,256.06 920.121,260.196 925.216,260.196L943.679,260.196C948.774,260.196 952.911,256.06 952.911,250.965L952.911,224.205ZM941.9,228.176L926.996,228.176L926.996,246.994L941.9,246.994L941.9,228.176Z" style="fill:#078dff;"/>
    <path d="M99.386,279.148C99.386,274.053 95.249,269.917 90.154,269.917L71.691,269.917C66.596,269.917 62.46,274.053 62.46,279.148L62.46,305.908C62.46,311.003 66.596,315.14 71.691,315.14L90.154,315.14C95.249,315.14 99.386,311.003 99.386,305.908L99.386,279.148ZM88.375,283.119L73.471,283.119L73.471,301.937L88.375,301.937L88.375,283.119Z" style="fill:#078dff;"/>
    <path d="M709.1,279.148C709.1,274.053 704.964,269.917 699.869,269.917L681.406,269.917C676.311,269.917 672.174,274.053 672.174,279.148L672.174,305.908C672.174,311.003 676.311,315.14 681.406,315.14L699.869,315.14C704.964,315.14 709.1,311.003 709.1,305.908L709.1,279.148ZM698.09,283.119L683.185,283.119L683.185,301.937L698.09,301.937L698.09,283.119Z" style="fill:#078dff;"/>
    <path d="M476.051,279.148C476.051,274.053 471.915,269.917 466.82,269.917L448.357,269.917C443.262,269.917 439.125,274.053 439.125,279.148L439.125,305.908C439.125,311.003 443.262,315.14 448.357,315.14L466.82,315.14C471.915,315.14 476.051,311.003 476.051,305.908L476.051,279.148ZM465.041,283.119L450.136,283.119L450.136,301.937L465.041,301.937L465.041,283.119Z" style="fill:#078dff;"/>
    <path d="M99.386,389.035C99.386,383.94 95.249,379.804 90.154,379.804L71.691,379.804C66.596,379.804 62.46,383.94 62.46,389.035L62.46,415.795C62.46,420.89 66.596,425.027 71.691,425.027L90.154,425.027C95.249,425.027 99.386,420.89 99.386,415.795L99.386,389.035ZM88.375,393.006L73.471,393.006L73.471,411.824L88.375,411.824L88.375,393.006Z" style="fill:#078dff;"/>
    <path d="M709.1,389.035C709.1,383.94 704.964,379.804 699.869,379.804L681.406,379.804C676.311,379.804 672.174,383.94 672.174,389.035L672.174,415.795C672.174,420.89 676.311,425.027 681.406,425.027L699.869,425.027C704.964,425.027 709.1,420.89 709.1,415.795L709.1,389.035ZM698.09,393.006L683.185,393.006L683.185,411.824L698.09,411.824L698.09,393.006Z" style="fill:#078dff;"/>
    <path d="M476.051,389.035C476.051,383.94 471.915,379.804 466.82,379.804L448.357,379.804C443.262,379.804 439.125,383.94 439.125,389.035L439.125,415.795C439.125,420.89 443.262,425.027 448.357,425.027L466.82,425.027C471.915,425.027 476.051,420.89 476.051,415.795L476.051,389.035ZM465.041,393.006L450.136,393.006L450.136,411.824L465.041,411.824L465.041,393.006Z" style="fill:#078dff;"/>
    <path d="M99.386,498.922C99.386,493.827 95.249,489.691 90.154,489.691L71.691,489.691C66.596,489.691 62.46,493.827 62.46,498.922L62.46,525.682C62.46,530.777 66.596,534.914 71.691,534.914L90.154,534.914C95.249,534.914 99.386,530.777 99.386,525.682L99.386,498.922ZM88.375,502.894L73.471,502.894L73.471,521.711L88.375,521.711L88.375,502.894Z" style="fill:#078dff;"/>
    <path d="M709.1,498.922C709.1,493.827 704.964,489.691 699.869,489.691L681.406,489.691C676.311,489.691 672.174,493.827 672.174,498.922L672.174,525.682C672.174,530.777 676.311,534.914 681.406,534.914L699.869,534.914C704.964,534.914 709.1,530.777 709.1,525.682L709.1,498.922ZM698.09,502.894L683.185,502.894L683.185,521.711L698.09,521.711L698.09,502.894Z" style="fill:#078dff;"/>
    <path d="M476.051,498.922C476.051,493.827 471.915,489.691 466.82,489.691L448.357,489.691C443.262,489.691 439.125,493.827 439.125,498.922L439.125,525.682C439.125,530.777 443.262,534.914 448.357,534.914L466.82,534.914C471.915,534.914 476.051,530.777 476.051,525.682L476.051,498.922ZM465.041,502.894L450.136,502.894L450.136,521.711L465.041,521.711L465.041,502.894Z" style="fill:#078dff;"/>
    <path d="M173.237,169.261C173.237,164.166 169.101,160.03 164.006,160.03L145.543,160.03C140.448,160.03 136.312,164.166 136.312,169.261L136.312,196.021C136.312,201.116 140.448,205.253 145.543,205.253L164.006,205.253C169.101,205.253 173.237,201.116 173.237,196.021L173.237,169.261ZM162.227,173.232L147.322,173.232L147.322,192.05L162.227,192.05L162.227,173.232Z" style="fill:#078dff;"/>
    <path d="M782.952,169.261C782.952,164.166 778.816,160.03 773.721,160.03L755.258,160.03C750.163,160.03 746.026,164.166 746.026,169.261L746.026,196.021C746.026,201.116 750.163,205.253 755.258,205.253L773.721,205.253C778.816,205.253 782.952,201.116 782.952,196.021L782.952,169.261ZM771.941,173.232L757.037,173.232L757.037,192.05L771.941,192.05L771.941,173.232Z" style="fill:#078dff;"/>
    <path d="M284.015,224.205C284.015,219.11 279.879,214.973 274.784,214.973L256.321,214.973C251.226,214.973 247.089,219.11 247.089,224.205L247.089,250.965C247.089,256.06 251.226,260.196 256.321,260.196L274.784,260.196C279.879,260.196 284.015,256.06 284.015,250.965L284.015,224.205ZM273.004,228.176L258.1,228.176L258.1,246.994L273.004,246.994L273.004,228.176Z" style="fill:#078dff;"/>
    <path d="M284.015,334.092C284.015,328.997 279.879,324.86 274.784,324.86L256.321,324.86C251.226,324.86 247.089,328.997 247.089,334.092L247.089,360.852C247.089,365.947 251.226,370.083 256.321,370.083L274.784,370.083C279.879,370.083 284.015,365.947 284.015,360.852L284.015,334.092ZM273.004,338.063L258.1,338.063L258.1,356.881L273.004,356.881L273.004,338.063Z" style="fill:#078dff;"/>
    <path d="M284.015,443.979C284.015,438.884 279.879,434.747 274.784,434.747L256.321,434.747C251.226,434.747 247.089,438.884 247.089,443.979L247.089,470.739C247.089,475.834 251.226,479.97 256.321,479.97L274.784,479.97C279.879,479.97 284.015,475.834 284.015,470.739L284.015,443.979ZM273.004,447.95L258.1,447.95L258.1,466.768L273.004,466.768L273.004,447.95Z" style="fill:#078dff;"/>
    <path d="M357.867,334.092C357.867,328.997 353.73,324.86 348.635,324.86L330.172,324.86C325.077,324.86 320.941,328.997 320.941,334.092L320.941,360.852C320.941,365.947 325.077,370.083 330.172,370.083L348.635,370.083C353.73,370.083 357.867,365.947 357.867,360.852L357.867,334.092ZM346.856,338.063L331.952,338.063L331.952,356.881L346.856,356.881L346.856,338.063Z" style="fill:#078dff;"/>
    <path d="M357.867,443.979C357.867,438.884 353.73,434.747 348.635,434.747L330.172,434.747C325.077,434.747 320.941,438.884 320.941,443.979L320.941,470.739C320.941,475.834 325.077,479.97 330.172,479.97L348.635,479.97C353.73,479.97 357.867,475.834 357.867,470.739L357.867,443.979ZM346.856,447.95L331.952,447.95L331.952,466.768L346.856,466.768L346.856,447.95Z" style="fill:#078dff;"/>
    <path d="M320.941,279.148C320.941,274.053 316.805,269.917 311.71,269.917L293.247,269.917C288.152,269.917 284.015,274.053 284.015,279.148L284.015,305.908C284.015,311.003 288.152,315.14 293.247,315.14L311.71,315.14C316.805,315.14 320.941,311.003 320.941,305.908L320.941,279.148ZM309.93,283.119L295.026,283.119L295.026,301.937L309.93,301.937L309.93,283.119Z" style="fill:#078dff;"/>
    <path d="M320.941,389.035C320.941,383.94 316.805,379.804 311.71,379.804L293.247,379.804C288.152,379.804 284.015,383.94 284.015,389.035L284.015,415.795C284.015,420.89 288.152,425.027 293.247,425.027L311.71,425.027C316.805,425.027 320.941,420.89 320.941,415.795L320.941,389.035ZM309.93,393.006L295.026,393.006L295.026,411.824L309.93,411.824L309.93,393.006Z" style="fill:#078dff;"/>
    <path d="M320.941,498.922C320.941,493.827 316.805,489.691 311.71,489.691L293.247,489.691C288.152,489.691 284.015,493.827 284.015,498.922L284.015,525.682C284.015,530.777 288.152,534.914 293.247,534.914L311.71,534.914C316.805,534.914 320.941,530.777 320.941,525.682L320.941,498.922ZM309.93,502.894L295.026,502.894L295.026,521.711L309.93,521.711L309.93,502.894Z" style="fill:#078dff;"/>
    <path d="M247.089,498.922C247.089,493.827 242.953,489.691 237.858,489.691L219.395,489.691C214.3,489.691 210.163,493.827 210.163,498.922L210.163,525.682C210.163,530.777 214.3,534.914 219.395,534.914L237.858,534.914C242.953,534.914 247.089,530.777 247.089,525.682L247.089,498.922ZM236.078,502.894L221.174,502.894L221.174,521.711L236.078,521.711L236.078,502.894Z" style="fill:#078dff;"/>
    <path d="M173.237,279.148C173.237,274.053 169.101,269.917 164.006,269.917L145.543,269.917C140.448,269.917 136.312,274.053 136.312,279.148L136.312,305.908C136.312,311.003 140.448,315.14 145.543,315.14L164.006,315.14C169.101,315.14 173.237,311.003 173.237,305.908L173.237,279.148ZM162.227,283.119L147.322,283.119L147.322,301.937L162.227,301.937L162.227,283.119Z" style="fill:#078dff;"/>
    <path d="M782.952,279.148C782.952,274.053 778.816,269.917 773.721,269.917L755.258,269.917C750.163,269.917 746.026,274.053 746.026,279.148L746.026,305.908C746.026,311.003 750.163,315.14 755.258,315.14L773.721,315.14C778.816,315.14 782.952,311.003 782.952,305.908L782.952,279.148ZM771.941,283.119L757.037,283.119L757.037,301.937L771.941,301.937L771.941,283.119Z" style="fill:#078dff;"/>
    <path d="M549.903,279.148C549.903,274.053 545.767,269.917 540.672,269.917L522.209,269.917C517.114,269.917 512.977,274.053 512.977,279.148L512.977,305.908C512.977,311.003 517.114,315.14 522.209,315.14L540.672,315.14C545.767,315.14 549.903,311.003 549.903,305.908L549.903,279.148ZM538.892,283.119L523.988,283.119L523.988,301.937L538.892,301.937L538.892,283.119Z" style="fill:#078dff;"/>
    <path d="M173.237,389.035C173.237,383.94 169.101,379.804 164.006,379.804L145.543,379.804C140.448,379.804 136.312,383.94 136.312,389.035L136.312,415.795C136.312,420.89 140.448,425.027 145.543,425.027L164.006,425.027C169.101,425.027 173.237,420.89 173.237,415.795L173.237,389.035ZM162.227,393.006L147.322,393.006L147.322,411.824L162.227,411.824L162.227,393.006Z" style="fill:#078dff;"/>
    <path d="M782.952,389.035C782.952,383.94 778.816,379.804 773.721,379.804L755.258,379.804C750.163,379.804 746.026,383.94 746.026,389.035L746.026,415.795C746.026,420.89 750.163,425.027 755.258,425.027L773.721,425.027C778.816,425.027 782.952,420.89 782.952,415.795L782.952,389.035ZM771.941,393.006L757.037,393.006L757.037,411.824L771.941,411.824L771.941,393.006Z" style="fill:#078dff;"/>
    <path d="M549.903,389.035C549.903,383.94 545.767,379.804 540.672,379.804L522.209,379.804C517.114,379.804 512.977,383.94 512.977,389.035L512.977,415.795C512.977,420.89 517.114,425.027 522.209,425.027L540.672,425.027C545.767,425.027 549.903,420.89 549.903,415.795L549.903,389.035ZM538.892,393.006L523.988,393.006L523.988,411.824L538.892,411.824L538.892,393.006Z" style="fill:#078dff;"/>
    <path d="M173.237,498.922C173.237,493.827 169.101,489.691 164.006,489.691L145.543,489.691C140.448,489.691 136.312,493.827 136.312,498.922L136.312,525.682C136.312,530.777 140.448,534.914 145.543,534.914L164.006,534.914C169.101,534.914 173.237,530.777 173.237,525.682L173.237,498.922ZM162.227,502.894L147.322,502.894L147.322,521.711L162.227,521.711L162.227,502.894Z" style="fill:#078dff;"/>
    <path d="M782.952,498.922C782.952,493.827 778.816,489.691 773.721,489.691L755.258,489.691C750.163,489.691 746.026,493.827 746.026,498.922L746.026,525.682C746.026,530.777 750.163,534.914 755.258,534.914L773.721,534.914C778.816,534.914 782.952,530.777 782.952,525.682L782.952,498.922ZM771.941,502.894L757.037,502.894L757.037,521.711L771.941,521.711L771.941,502.894Z" style="fill:#078dff;"/>
    <path d="M549.903,498.922C549.903,493.827 545.767,489.691 540.672,489.691L522.209,489.691C517.114,489.691 512.977,493.827 512.977,498.922L512.977,525.682C512.977,530.777 517.114,534.914 522.209,534.914L540.672,534.914C545.767,534.914 549.903,530.777 549.903,525.682L549.903,498.922ZM538.892,502.894L523.988,502.894L523.988,521.711L538.892,521.711L538.892,502.894Z" style="fill:#078dff;"/>
    <rect id="bits" x="0" y="0" width="1200" height="640" style="fill:none;"/>
</svg>
