<?xml version="1.0" encoding="UTF-8" standalone="no"?>
<!DOCTYPE svg PUBLIC "-//W3C//DTD SVG 1.1//EN" "http://www.w3.org/Graphics/SVG/1.1/DTD/svg11.dtd">
<svg width="100%" height="100%" viewBox="0 0 128 128" version="1.1" xmlns="http://www.w3.org/2000/svg" xmlns:xlink="http://www.w3.org/1999/xlink" xml:space="preserve" xmlns:serif="http://www.serif.com/" style="fill-rule:evenodd;clip-rule:evenodd;stroke-miterlimit:1.5;">
    <rect id="icon" x="0" y="0" width="128" height="128" style="fill:none;"/>
    <clipPath id="_clip1">
        <rect x="0" y="0" width="128" height="128"/>
    </clipPath>
    <g clip-path="url(#_clip1)">
        <path d="M10.148,128L11.934,94.225L14.379,71.003L13.771,55.977L11.71,44.287L13.193,29.239L16.318,21.136L21.397,16.312L29.474,13.641L89.356,12.482L97.904,14.181L102.921,20.124L105.669,27.718L106.712,45.827L106.94,53.79L107.662,67.373L106.122,83.469L107.667,95.83L109.149,108.685L112.046,123.509L110.369,133.647L104.366,133.48L102.797,111.834L99.805,110.841L65.065,119.221L35.533,116.752L21.101,116.609L20.109,133.105L12.887,132.267L10.148,128ZM20.625,41.421L19.162,96.149L20.231,99.549L25.445,97.428L27.858,102.371L33.455,98.808L36.945,106.284L42.271,100.496L43.769,101.582L46.134,105.965L51.654,101.202L55.693,105.96L61.097,103.523L64,107.556L68.282,103.071L72.493,105.367L78.606,102.443L80.065,104.159L83.853,100.777L88.802,101.928L94.687,98.742L100.16,100.71L99.76,84.98L95.87,58.388L97.473,47.651L97.316,45.15L91.855,47.577L89.595,51.899L85.01,48.555L81.981,47.583L77.344,51.253L74.355,47.831L69.237,52.031L64,47.774L61.097,50.803L55.143,46.567L51.541,49.996L47.027,44.29L43.623,46.905L39.717,43.485L35.97,47.973L33.629,42.218L28.941,47.259L27.369,43.751L22.75,48.517L21.673,48.517L20.625,41.421Z" style="fill:#c0fff8;stroke:#000;stroke-width:4px;"/>
        <path d="M33.648,25.201C34.997,24.273 38.885,25.965 39.75,27.712C40.614,29.46 39.267,33.48 39.267,33.48C37.68,34.472 35.901,35.027 33.442,34.026C31.546,33.009 31.293,31.179 31.112,29.315C31.112,29.315 32.299,26.129 33.648,25.201Z"/>
        <path d="M86.472,34.23C84.901,33.768 83.762,29.684 84.573,27.911C85.384,26.138 89.354,24.648 89.354,24.648C91.747,25.506 93.215,26.845 93.451,28.825C93.223,30.827 92.453,32.386 91.265,33.604C91.265,33.604 88.044,34.692 86.472,34.23Z"/>
    </g>
</svg>
