<?xml version="1.0" encoding="UTF-8" standalone="no"?>
<!DOCTYPE svg PUBLIC "-//W3C//DTD SVG 1.1//EN" "http://www.w3.org/Graphics/SVG/1.1/DTD/svg11.dtd">
<svg width="100%" height="100%" viewBox="0 0 128 128" version="1.1" xmlns="http://www.w3.org/2000/svg" xmlns:xlink="http://www.w3.org/1999/xlink" xml:space="preserve" xmlns:serif="http://www.serif.com/" style="fill-rule:evenodd;clip-rule:evenodd;stroke-miterlimit:1.5;">
    <rect id="projects" x="0" y="0" width="128" height="128" style="fill:none;"/>
    <rect x="20.802" y="24.26" width="84.852" height="76.624" style="fill:#fff;"/>
    <path d="M14.702,117.155L16.43,84.474L18.797,62.005L18.208,47.466L16.214,36.155L17.649,21.595L20.672,13.754L25.587,9.087L33.403,6.502L91.343,5.381L99.614,7.025L104.469,12.775L107.128,20.123L108.137,37.646L108.357,45.35L109.056,58.493L107.565,74.067L109.061,86.028L110.494,98.466L113.298,112.81L111.675,122.619L105.867,122.457L104.348,101.513L101.454,100.552L67.839,108.66L39.265,106.271L25.3,106.133L24.341,122.095L17.353,121.283L14.702,117.155ZM24.84,33.382L23.425,86.336L24.459,89.625L29.504,87.574L31.839,92.356L37.254,88.909L40.631,96.143L45.784,90.542L47.234,91.593L49.522,95.834L54.863,91.225L58.771,95.829L64,93.472L66.809,97.374L70.952,93.034L75.027,95.255L80.942,92.426L82.354,94.087L86.018,90.814L90.807,91.928L96.502,88.845L101.797,90.749L101.41,75.529L97.646,49.799L99.197,39.41L99.045,36.99L93.761,39.339L91.575,43.52L87.138,40.285L84.208,39.344L79.721,42.896L76.828,39.584L71.876,43.648L66.809,39.53L64,42.46L58.239,38.361L54.754,41.68L50.386,36.158L47.092,38.689L43.313,35.379L39.688,39.722L37.422,34.154L32.886,39.031L31.365,35.637L26.896,40.248L25.854,40.248L24.84,33.382Z" style="fill:#fff;stroke:#000;stroke-width:4px;"/>
    <path d="M37.441,17.688C38.746,16.79 42.508,18.427 43.345,20.118C44.181,21.809 42.878,25.699 42.878,25.699C41.342,26.659 39.621,27.196 37.242,26.227C35.407,25.243 35.163,23.473 34.987,21.668C34.987,21.668 36.136,18.586 37.441,17.688Z"/>
    <path d="M88.553,26.424C87.033,25.978 85.931,22.026 86.716,20.31C87.5,18.595 91.341,17.153 91.341,17.153C93.657,17.983 95.077,19.278 95.305,21.194C95.085,23.131 94.34,24.64 93.19,25.819C93.19,25.819 90.073,26.871 88.553,26.424Z"/>
</svg>
