<svg clip-rule="evenodd" fill-rule="evenodd" stroke-linejoin="round" stroke-miterlimit="2" viewBox="0 0 100 100" xmlns="http://www.w3.org/2000/svg"><path d="m-.007 99.926c7.199-10.059 17.111-30.424 22.41-35.723 4.481-4.484 8.829-6.25 12.227-6.113l7.199 7.199c.137 3.532-1.629 7.879-5.976 12.227-5.435 5.432-25.664 15.211-35.86 22.41l-.008.011-.003-.003zm83.329-97.884c7.92-2.645 13.816-2.235 15.3-.886 1.765 1.766 2.172 8.15-.814 16.3l.002.001-.004.004.002-.005-.004-.002.002.007-1.226 2.984c-4.89 11.144-20.93 28.299-30.578 35.498l3.125 22.148-19.012 17.764 11.414-19.699-3.262-10.734-5.433-5.57-.001.004c-3.399 1.492-6.524 2.582-8.969 2.988l-6.66-6.659c.27-2.582 1.356-5.57 2.852-8.969l-5.57-5.57-10.734-3.262-19.699 11.414 16.964-16.964 22.148 3.262c7.473-9.918 25.427-28.009 37.111-32.9l2.858-1.091z"/></svg>